/* XPM */
static char *_70f03cd0acd424ff0254603cc6ce6b14JOUcRfy5Pyrftdr[] = {
/* columns rows colors chars-per-pixel */
"50 50 188 2 ",
"   c #016E06",
".  c #00670E",
"X  c #006D0C",
"o  c #007502",
"O  c #047B02",
"+  c #0A7D02",
"@  c #00720B",
"#  c #0A770F",
"$  c #017808",
"%  c #0D7D09",
"&  c #127E00",
"*  c #006616",
"=  c #016C13",
"-  c #00651A",
";  c #016919",
":  c #037313",
">  c #087413",
",  c #0F7C10",
"<  c #0A771A",
"1  c #127F12",
"2  c #086323",
"3  c #0F6C29",
"4  c #097727",
"5  c #10712C",
"6  c #18712F",
"7  c #1C7437",
"8  c #247C2B",
"9  c #2E7E4C",
"0  c #068202",
"q  c #0D8201",
"w  c #128601",
"e  c #188706",
"r  c #168A01",
"t  c #1A8D01",
"y  c #14850B",
"u  c #178B0A",
"i  c #1B8C0C",
"p  c #1E9201",
"a  c #1A9905",
"s  c #1D920F",
"d  c #1D9808",
"f  c #1B8413",
"g  c #1C8C15",
"h  c #198618",
"j  c #1B881A",
"k  c #20850A",
"l  c #229502",
"z  c #269903",
"x  c #2A9C03",
"c  c #22930B",
"v  c #2D910B",
"b  c #279A0B",
"n  c #2B9D0B",
"m  c #319C0D",
"M  c #248A17",
"N  c #20821E",
"B  c #258D1A",
"V  c #288B1F",
"C  c #328A1A",
"Z  c #229214",
"A  c #299516",
"S  c #269913",
"D  c #2C9E13",
"F  c #2B921E",
"G  c #2B9A1A",
"H  c #329D14",
"J  c #31961D",
"K  c #359A1C",
"L  c #3D9C1D",
"P  c #2EA204",
"I  c #2EA20C",
"U  c #2FAB0E",
"Y  c #32A405",
"T  c #34A904",
"R  c #39AD05",
"E  c #33A40C",
"W  c #39A50D",
"Q  c #35AA0C",
"!  c #39AD0B",
"~  c #3EB205",
"^  c #3DB10D",
"/  c #2EA314",
"(  c #34A413",
")  c #3AA517",
"_  c #35AB12",
"`  c #39AB14",
"'  c #34A31B",
"]  c #3BA31C",
"[  c #33AB18",
"{  c #3EAC1B",
"}  c #3CB013",
"|  c #148229",
" . c #2A8525",
".. c #268A2E",
"X. c #318C26",
"o. c #2C9F25",
"O. c #339A24",
"+. c #3A9821",
"@. c #3B972D",
"#. c #3E9B2D",
"$. c #288238",
"%. c #338C35",
"&. c #358838",
"*. c #3D963B",
"=. c #3E9B38",
"-. c #34A224",
";. c #3CA224",
":. c #3BAB21",
">. c #3EA52C",
",. c #2EA633",
"<. c #40B40F",
"1. c #41AA16",
"2. c #40AA19",
"3. c #44B51A",
"4. c #459A2D",
"5. c #439D31",
"6. c #4A9C34",
"7. c #43A226",
"8. c #42A62B",
"9. c #47AC2B",
"0. c #4AAA2C",
"q. c #50B52D",
"w. c #52B92B",
"e. c #44A237",
"r. c #4CA635",
"t. c #4DAD31",
"y. c #4CAB3A",
"u. c #51A133",
"i. c #55A936",
"p. c #52AC3B",
"a. c #55B233",
"s. c #479B47",
"d. c #4A9A40",
"f. c #4D9E4C",
"g. c #509F45",
"h. c #428D55",
"j. c #458A58",
"k. c #4A9C50",
"l. c #4E955F",
"z. c #4FA343",
"x. c #4DAF41",
"c. c #56A642",
"v. c #5EA646",
"b. c #53A54B",
"n. c #5EAD4E",
"m. c #53B741",
"M. c #5CB243",
"N. c #4CAF50",
"B. c #5DA952",
"V. c #62B644",
"C. c #61B44C",
"Z. c #68B04E",
"A. c #68B94D",
"S. c #62AE56",
"D. c #60AC5B",
"F. c #69BB56",
"G. c #64B15C",
"H. c #71BB5D",
"J. c #4F8F65",
"K. c #528C60",
"L. c #579E6F",
"P. c #56A660",
"I. c #5DA072",
"U. c #66A765",
"Y. c #66B060",
"T. c #6BB366",
"R. c #77BD65",
"E. c #7ABC66",
"W. c #7DBE74",
"Q. c #7ABA7C",
"!. c #74C35C",
"~. c #5FC063",
"^. c #72C560",
"/. c #7DC269",
"(. c #80C274",
"). c #8BCC72",
"_. c #6FAB80",
"`. c #7DB782",
"'. c #85BE81",
"]. c #89BD92",
"[. c #88C388",
"{. c #8DC18A",
"}. c #91C582",
"|. c #91C08F",
" X c #99CB8F",
".X c #97C892",
"XX c #9BC996",
"oX c #BAEDA8",
/* pixels */
"N.N.N.N.N.N.N.N.N.N.N.,.N.N.N.N.N.N.N.N.,.N.N.N.N.N.N.N.N.,.,.,.N.N.N.N.N.N.N.N.,.,.N.N.N.N.N.N.N.N.",
"N.N.N.N.N.N.N.N.N.N.N.,.N.N.N.N.N.N.N.N.,.N.N.N.N.N.,.N.,.N.N.N.N.N.N.N.,.,.,.,.N.N.N.N.N.N.~.~.N.N.",
"N.,.,.,.N.N.N.~.N.N.N.N.N.N.N.~.~.~.N.N.N.N.N.N.,.,.N.N.j.~.~.N.~.N.N.N.N.N.N.N.N.N.N.N.N.N.N.N.~.N.",
"N.,.N.~.N.N.N.~.N.N.&.N.N.N.N.N.N.N.N.N.N.N.N.&.N.N.N.L.7 N.N.N.N.N.~.N.N.N.N.N.N.,.N.N.,.,.,.,.~.~.",
"N.N.N.~.N.,.&.~.N.N.&.N.~.N.,.,.,.,.N.,.,.N.~.&.N.N.$.4 _.&.,.N.&.&.~.&.&.N.N.N.N.,.~.N.N.N.N.,.N.N.",
"N.N.&.~.N.,.N.&.N.,.&.N.~.N.N.N.N.N.N.N.N.N.N.&.'.b.g | N.N.N.N.N.N.N.N.N.N.N.N.N.N.~.N.N.N.N.N.N.N.",
"N.N.&.~.N.N.,.,.&.,.&.N.~.N.N.N.~.N.N.N.N.N.N.&.B c c ..N.,.N.N.N.N.N.N.N.N.N.,.N.~.N.N.&.N.N.N.N.N.",
"N.N.&.~.N.N.N.N.N.N.N.&.~.N.~.~.N.N.,.,.,.,.&.n.b ( b N.N.,.N.N.N.~.~.N.N.N.N.,.N.N.N.N.&.N.,.N.N.N.",
"N.N.N.N.N.N.~.~.~.N.N.,.,.N.~.N.N.N.N.N.N.N.N.H Q ! x N.,.N.N.~.N.N.N.N.{.{.|.N.N.~.,.,.&.N.,.N.N.N.",
"N.N.N.,.,.N.N.N.N.N.N.,.N.N.~.N.N.N.N.N.N.N.e.P ^ R ) N.,.N.&.N.N.N.i i g N %.U.~.N.N.,.&.N.,.~.N.N.",
"N.N.N.N.,.,.N.N.N.N.N.N.N.N.N.&.&.&.N.&.N.N.G } <.Q F.N.N.~.N.&.G.>.d a u *.N.~.~.~.N.,.&.N.,.~.N.N.",
"N.N.N.N.N.N.~.~.~.~.N.N.N.N.N.,.N.N.N.N.N.p.E ^ ~ Y N.N.N.N.N.b.S I I b O.[.N.N.N.N.~.~.&.N.N.~.N.N.",
"N.N.N.N.N.N.N.N.N.N.N.N.N.N.,.,.N.N.N.N.~.t.E R ~ Y C.&.&.H.;.-.( ` _ n n.N.N.N.N.N.N.N.N.N.N.N.N.N.",
"N.N.N.~.N.N.&.N.N.N.,.,.&.~.~.N.N.N.&.N.N.c E R R Y y.N.N.8.D ' ` ! E r.N.N.N.,.N.N.N.N.N.~.,.,.,.N.",
"N.N.~.N.N.&.&.N.N.N.N.k.V (. XN.N.N.&.N.N.l E T T Y &.N.p.E ` ` ` _ ;.N.N.N.N.,.N.N.N.N.N.~.N.N.N.N.",
"N.N.N.~.,.&.N.N.N.N.N.f.e ' D !.R.N.N.N.N.c P P P x N.N.E Y R ^ ` ' N.~.N.~.,.N.N.N.N.&.~.N.N.N.N.,.",
"N.N.,.~.N.N.N.N.N.N.N.,.S.( } { / p.N.,.,.l x x x z N.,.x T R ~ Q x.,.&.N.~.~.~.,.N.,.&.~.N.N.N.,.,.",
"N.N.,.~.N.N.N.N.N.N.N.N.N.H.E ` ` E 9.N.N.l x x x m ~.~.x T R R { N.&.&.N.,.N.~.~.N.N.&.N.N.N.,.,.N.",
"N.N.N.N.~.~.~.~.~.N.N.N.N.N./.( ! R P ] 8.p z z z p 5.K z P I Y V.&.,.~.N.N.N.N.N.N.,.&.N.N.N.N.N.N.",
"N.N.N.N.N.N.N.N.,.~.~.N.~.N.N.' R R E z p p l l l t r t b I I 0.N.N.N.~.N.N.N.N.N.N.,.N.&.N.N.N.N.N.",
"N.N.N.N.&.N.N.N.N.,.,.N.~.N.N.R.E E I n l p l l l t t l b n n A.N.,.N.N.~.,.N.N.N.N.,.N.N.N.N.N.~.N.",
"N.N.N.9 &.N.N.N.N.N.N.N.N.N.~.,.E.( I n l p p p p p p c z z l M.,.,.!.!.^.n.D.&.N.~.~.~.N.,.N.,.~.N.",
"N.N.N.N.8 N.,.N.,.N.N.N.N.N.&.~.N.] x z l p p t t t p l l l l 7.).1.R _ [ G b.~.~.N.N.`.N.Q.I.~.,.N.",
"N.N.N.,.d.F N.N.N.,.N.,.N.H 7.A.~.( z z l t t t t t t p l l p l ] ! ^ ! [ o.Q.N.N.(.k A g h.N.N.,.N.",
"N.N.~.~.~.&.E 6.G.Y.z.>.E T T Y a.z z z p t t t t t t t p p p l x R R _ U M ].XXr.E Q %.,.N.N.N.,.N.",
"N.N.~.,.N.N.N.^ I c G Z n Y ( E n x z l t r r r r r r r t t t l n Y P _ u.&.W.P ^ L ~.~.&.N.&.&.,.N.",
"N.N.~.N.N.N.~.N._ ! n O.H n D D n x z l t r r r r r r r r t t l z x z C.&.4.R ) N.N.,.&.&.N.N.&.,.N.",
"N.N.~.~.N.,.~.~.N.L R I n I P c b l p t r w w q q w w w w r r p p g A oXm T I ,.N.N.N.,.N.N.N.&.,.N.",
"N.N.N.~.,.N.N.~.N.N.C Q E z x x c r t r w q q + + + q q q w w r r ..e.z x I / i ,.N.N.N.,.N.~.N.N.N.",
"N.N.,.,.N.N.&.&.N.N.N.m.z P z l r w w q q + + + + + + + q w w w + e z l b S D c B N.N.N.,.~.N.N.N.N.",
"N.N.,.N.N.~.XXf c I / H n z x z t w + + + O O O O O O O O 0 0 + + r x ( / b r M ,.N.N.N.~.~.N.N.N.N.",
"N.N.N.N.N.N.~.&. .c ! { ( n l l l w + O O O O o o o o o O O O q i T ^ ` I u X.N.N.N.~.~.~.N.N.N.N.N.",
"N.N.N.N.N.N.~.,.N.,.~.i.) _ R P l p r + O o o o o o o o o o w n Y _ ( z Z =.N.~.N.,.N.&.&.N.N.N.,.,.",
"N.N.N.N.N.N.~.N.N.N.~.N.N.l I ( I b l % @ @ @ @ @ @ @ @ @ u c n S c p P Q D P.~.N.,.N.&.,.N.N.,.,.N.",
"N.N.N.N.N.N.~.N.N.N.).W E x l t c x z l % X @ X     X X r l + % w p x P ` :.@..X&.,.N.,.,.N.N.N.N.N.",
"N.N.N.N.N.N.~.N.N.S.E I -.x t w q r t z l % X   X X   t z c   $ w w j M.N./.N.s.W.g.T.N.N.N.~.N.N.N.",
"N.N.N.N.N.B.+.K c t E n ;.t.w q + q x P x z y . X   i E ` % X $ O f y.n T ` ) ` 2.( J b.~.&.~.N.N.N.",
"N.N.,.N.N.~.,.N.N.r.{ E I I t w O O c T ( n l y = u n ! Z = @ $ w i b I I ) V.N.N.N.N.~.N.&.N.,.N.N.",
"N.N.,.N.~.N.}.N.N.N.N.N.m z z p q $ y c c f , w % r S s = = : % t p p l M.,.N.N.&.N.N.~.N.&.N.,.N.N.",
"N.N.,.~.N.N.&.&.N.Z.w.H x z l t y : $ % 1 = = @ $ + > = - - = q w r t z P Q 3.q.4.N.,.~.N.N.N.,.N.N.",
"N.~.~.N.N.N.N.,.~.~.N.N.8.l r q + $ @ = X ; - = : > = - - - X O 0 q w r v v.~.N.&.,.~.~.N.N.N.,.N.N.",
"N.~.,.N.N.N.N.~.~.N.N.,.N.N.N.X.& $ = . = = - = - ; - - - - = @ O r H.,.,.N.N.N.&.N.~.N.N.N.&.N.N.N.",
"N.&.&.N.N.N.~.N.N.N.,.N.&.N.~.N.N.5.i   = * = - - - - - - * % D c.&.N.,.N.N.N.N.&.~.N.N.N.N.&.N.N.N.",
"N.N.&.~.N.N.N.N.,.N.N.N.&.N.~.N.,.N.N.#.n y . - * - *   g ' X.N.N.N.,.N.N.N.N.N.,.,.N.N.N.N.&.N.N.N.",
"N.N.&.~.N.N.N.N.,.N.N.N.&.N.N.N.,.~.~.,.l.> > h + g # < N.&.N.,.N.N.~.~.~.~.N.N.N.N.,.,.N.N.~.N.N.N.",
"N.N.&.~.&.,.,.,.~.N.N.N.N.N.~.,.,.N.N.N.,.2 - * * ; - 6 N.&.&.&.N.&.&.N.N.N.N.N.N.N.N.,.N.N.~.~.,.,.",
"N.N.N.&.,.&.N.~.~.N.N.N.N.N.~.,.N.N.N.N.N.j.- 5 K.j.3 N.~.~.~.~.&.&.&.&.&.&.,.N.N.N.N.N.N.N.N.~.N.,.",
"N.N.N.N.N.N.~.N.N.N.N.N.N.~.~.N.&.N.N.N.~.~.J.~.~.N.N.N.N.N.,.,.N.~.~.N.N.N.N.,.~.~.~.,.,.N.N.N.N.N.",
"N.N.N.,.N.N.N.N.N.N.N.&.&.&.&.&.&.N.N.N.N.N.N.N.N.N.N.N.N.N.N.N.N.N.,.N.N.N.N.N.N.N.N.~.N.N.N.,.N.N.",
"N.N.,.,.N.N.N.,.N.,.N.,.,.N.,.N.N.N.N.N.N.N.N.N.,.N.N.N.N.N.N.N.N.,.,.N.N.N.N.N.N.N.N.N.N.N.N.,.,.N."
};
