/* XPM */
static char * exit_xpm[] = {
"50 50 418 2",
"  	c #4CAF50",
". 	c #2EA633",
"+ 	c #5FC063",
"@ 	c #358838",
"# 	c #08135C",
"$ 	c #060F5C",
"% 	c #060F5E",
"& 	c #07105C",
"* 	c #080F5B",
"= 	c #01105E",
"- 	c #F83A6C",
"; 	c #FB3A66",
"> 	c #030F60",
", 	c #09115F",
"' 	c #54AE5C",
") 	c #030F61",
"! 	c #0D0B5E",
"~ 	c #FF376C",
"{ 	c #FA3C68",
"] 	c #FF3969",
"^ 	c #F73D67",
"/ 	c #0E0954",
"( 	c #04105E",
"_ 	c #264F54",
": 	c #050F5E",
"< 	c #4C1558",
"[ 	c #FE3968",
"} 	c #F73C6B",
"| 	c #FE3671",
"1 	c #FC386B",
"2 	c #FE3A6A",
"3 	c #FD3A68",
"4 	c #4C1755",
"5 	c #060E5C",
"6 	c #2C635B",
"7 	c #021259",
"8 	c #04115D",
"9 	c #DE3A72",
"0 	c #FE396A",
"a 	c #FF3A6F",
"b 	c #0F0A5C",
"c 	c #0F0A57",
"d 	c #FD3B69",
"e 	c #FE396C",
"f 	c #F93C6B",
"g 	c #DC3D72",
"h 	c #050F58",
"i 	c #050E5C",
"j 	c #061159",
"k 	c #030E61",
"l 	c #FD3670",
"m 	c #FE3A67",
"n 	c #FA3C74",
"o 	c #040D5D",
"p 	c #070C6A",
"q 	c #040E5E",
"r 	c #090D5D",
"s 	c #F93B71",
"t 	c #FB3B60",
"u 	c #040C5E",
"v 	c #4DAC54",
"w 	c #020E61",
"x 	c #060E60",
"y 	c #FF386F",
"z 	c #F93C68",
"A 	c #D63C70",
"B 	c #02115F",
"C 	c #081054",
"D 	c #FBCF17",
"E 	c #FDCB1C",
"F 	c #031253",
"G 	c #01115D",
"H 	c #DE3B72",
"I 	c #FF3868",
"J 	c #FE386D",
"K 	c #FA3B69",
"L 	c #2F0D58",
"M 	c #4EAF52",
"N 	c #2B6360",
"O 	c #0A0D5C",
"P 	c #511853",
"Q 	c #FE3A6B",
"R 	c #FD3A6A",
"S 	c #FC396C",
"T 	c #521555",
"U 	c #060F5B",
"V 	c #432E3A",
"W 	c #FACF15",
"X 	c #FDCD18",
"Y 	c #FDCD19",
"Z 	c #433533",
"` 	c #060E5F",
" .	c #55125F",
"..	c #FE386C",
"+.	c #AF8B6A",
"@.	c #3D835D",
"#.	c #060D57",
"$.	c #00135A",
"%.	c #D93D71",
"&.	c #FF3867",
"*.	c #FD3A67",
"=.	c #FF3C67",
"-.	c #100954",
";.	c #02105D",
">.	c #DBB341",
",.	c #FBCE13",
"'.	c #FECD16",
").	c #FECD19",
"!.	c #FCCF12",
"~.	c #D6B642",
"{.	c #0E085D",
"].	c #0D0C56",
"^.	c #FB3A6B",
"/.	c #F83B6E",
"(.	c #080F5F",
"_.	c #0A125A",
":.	c #05105F",
"<.	c #030F5F",
"[.	c #FE366F",
"}.	c #FF386E",
"|.	c #F63D6C",
"1.	c #FE3A69",
"2.	c #060D5D",
"3.	c #050E5D",
"4.	c #FBCC21",
"5.	c #FECD1B",
"6.	c #FECC18",
"7.	c #FACE18",
"8.	c #FBCD1B",
"9.	c #FACC1F",
"0.	c #02105E",
"a.	c #001158",
"b.	c #FD3B6E",
"c.	c #FF386C",
"d.	c #FB3C64",
"e.	c #040F5C",
"f.	c #52A758",
"g.	c #52AC5B",
"h.	c #03115C",
"i.	c #0D0857",
"j.	c #FA3C65",
"k.	c #FC3B67",
"l.	c #D7406F",
"m.	c #0C0C5C",
"n.	c #041157",
"o.	c #FBCC17",
"p.	c #FCCE16",
"q.	c #FDCD17",
"r.	c #FCCC1E",
"s.	c #453935",
"t.	c #39313F",
"u.	c #FCCD1D",
"v.	c #FECD18",
"w.	c #FBCD18",
"x.	c #FCCF18",
"y.	c #0A0B54",
"z.	c #090C5C",
"A.	c #DB3C6E",
"B.	c #FC3A69",
"C.	c #FA3B6C",
"D.	c #FC3A6C",
"E.	c #51B055",
"F.	c #2A5A5B",
"G.	c #070E5F",
"H.	c #501A57",
"I.	c #FB3B63",
"J.	c #4F1554",
"K.	c #050E5E",
"L.	c #3E3436",
"M.	c #FECD15",
"N.	c #FECC1C",
"O.	c #F4CD24",
"P.	c #080C68",
"Q.	c #040F5E",
"R.	c #030F5A",
"S.	c #040F5D",
"T.	c #EEC32D",
"U.	c #FDCF0E",
"V.	c #FDCB21",
"W.	c #3C363C",
"X.	c #001453",
"Y.	c #491855",
"Z.	c #FD3A65",
"`.	c #FE376B",
" +	c #040F59",
".+	c #2A6055",
"++	c #051058",
"@+	c #050F5B",
"#+	c #DB3B70",
"$+	c #FB3B6A",
"%+	c #FF386B",
"&+	c #FD3B68",
"*+	c #0F0A58",
"=+	c #070D63",
"-+	c #D7BB3D",
";+	c #FFCB1C",
">+	c #FACF17",
",+	c #080F55",
"'+	c #0A0F4E",
")+	c #FFF8CC",
"!+	c #FFF8CD",
"~+	c #191C56",
"{+	c #080E5C",
"]+	c #FCCD18",
"^+	c #FBCE14",
"/+	c #D6BA46",
"(+	c #070F56",
"_+	c #110A58",
":+	c #FD3C6C",
"<+	c #FD396D",
"[+	c #DE3B7B",
"}+	c #001357",
"|+	c #04125D",
"1+	c #081062",
"2+	c #080E5E",
"3+	c #FE3969",
"4+	c #FA3C72",
"5+	c #0A0D5F",
"6+	c #0D0B62",
"7+	c #FDCA1C",
"8+	c #FFCB16",
"9+	c #FFCB13",
"0+	c #FCCD17",
"a+	c #9094A3",
"b+	c #D5DAC8",
"c+	c #080E64",
"d+	c #F8CE1E",
"e+	c #FFCD13",
"f+	c #FDCC1D",
"g+	c #FFC916",
"h+	c #021157",
"i+	c #02105A",
"j+	c #FD3970",
"k+	c #FF396A",
"l+	c #FC3A6D",
"m+	c #FB396B",
"n+	c #070D5A",
"o+	c #050E67",
"p+	c #070D61",
"q+	c #FB3B64",
"r+	c #DD3972",
"s+	c #030E5E",
"t+	c #031350",
"u+	c #FECA1F",
"v+	c #FBCC22",
"w+	c #FDCF0F",
"x+	c #141546",
"y+	c #030F5B",
"z+	c #FDF7D5",
"A+	c #FFF8C8",
"B+	c #060E61",
"C+	c #0A0D53",
"D+	c #FECD14",
"E+	c #FCCB17",
"F+	c #091057",
"G+	c #00125C",
"H+	c #D83B71",
"I+	c #FD396C",
"J+	c #F73D69",
"K+	c #050E62",
"L+	c #070F62",
"M+	c #C13872",
"N+	c #F93A69",
"O+	c #54105E",
"P+	c #070F61",
"Q+	c #44352F",
"R+	c #FECC1A",
"S+	c #FBCD1E",
"T+	c #010E61",
"U+	c #070F5F",
"V+	c #01125D",
"W+	c #FECC1B",
"X+	c #FECD17",
"Y+	c #443036",
"Z+	c #090D5C",
"`+	c #521357",
" @	c #C2376C",
".@	c #070E69",
"+@	c #3C865B",
"@@	c #060E59",
"#@	c #00125E",
"$@	c #02105F",
"%@	c #D8B840",
"&@	c #FCCE14",
"*@	c #FFCC17",
"=@	c #FDCC20",
"-@	c #FBCB1B",
";@	c #FCCA1D",
">@	c #F8CF16",
",@	c #FECB1F",
"'@	c #DCB938",
")@	c #0A0C64",
"!@	c #080D5D",
"~@	c #3B8557",
"{@	c #060F57",
"]@	c #0A1148",
"^@	c #FCCD1A",
"/@	c #FCCE19",
"(@	c #FFCD18",
"_@	c #0B1149",
":@	c #080E5A",
"<@	c #080D5B",
"[@	c #091048",
"}@	c #FCCD1B",
"|@	c #D7B038",
"1@	c #D7B039",
"2@	c #D7B03A",
"3@	c #E1B52F",
"4@	c #E2BB33",
"5@	c #D8B136",
"6@	c #FFCC18",
"7@	c #0B1148",
"8@	c #090E5C",
"9@	c #060E5B",
"0@	c #09104B",
"a@	c #5B5335",
"b@	c #03125E",
"c@	c #0A0C5C",
"d@	c #050F5C",
"e@	c #030F5E",
"f@	c #0A0E5E",
"g@	c #FFCD10",
"h@	c #001451",
"i@	c #020E5C",
"j@	c #04105D",
"k@	c #01115A",
"l@	c #64593A",
"m@	c #FFCC19",
"n@	c #070E5A",
"o@	c #060E5D",
"p@	c #5C503F",
"q@	c #41BEF4",
"r@	c #40BFF2",
"s@	c #43BDF1",
"t@	c #04105F",
"u@	c #1547AF",
"v@	c #0D49B4",
"w@	c #0E49B6",
"x@	c #0C49B7",
"y@	c #060F5A",
"z@	c #65583C",
"A@	c #050E5B",
"B@	c #040E5D",
"C@	c #04115F",
"D@	c #02135F",
"E@	c #021260",
"F@	c #021360",
"G@	c #46BCF1",
"H@	c #3EBFF2",
"I@	c #3FBFF2",
"J@	c #42BEF2",
"K@	c #43BDF2",
"L@	c #070F5E",
"M@	c #44BDF2",
"N@	c #02135E",
"O@	c #021560",
"P@	c #43BCF1",
"Q@	c #03115F",
"R@	c #41BEF2",
"S@	c #3EC1F2",
"T@	c #011D66",
"U@	c #021761",
"V@	c #3EBEF2",
"W@	c #4CB4ED",
"X@	c #45B6ED",
"Y@	c #46B6ED",
"Z@	c #47B5ED",
"`@	c #050F5A",
" #	c #655839",
".#	c #3CC1F2",
"+#	c #031257",
"@#	c #050F5D",
"##	c #090D59",
"$#	c #927B38",
"%#	c #070F5C",
"&#	c #0D0E55",
"*#	c #FECB1B",
"=#	c #5B5045",
"-#	c #030D5D",
";#	c #3CC0F6",
">#	c #3EBFF4",
",#	c #3FBFF0",
"'#	c #00125D",
")#	c #FFCA19",
"!#	c #FDCE14",
"~#	c #0C104B",
"{#	c #070C57",
"]#	c #407A59",
"^#	c #020F65",
"/#	c #02115C",
"(#	c #070E5B",
"_#	c #070E5C",
":#	c #080D5E",
"<#	c #03105C",
"[#	c #030E62",
"}#	c #050D64",
"|#	c #001162",
"1#	c #060D65",
"2#	c #050E60",
"3#	c #27774C",
"4#	c #8F574A",
"5#	c #F48240",
"6#	c #ED8440",
"7#	c #ED873C",
"8#	c #C2694A",
"9#	c #021060",
"0#	c #070C66",
"a#	c #F7863C",
"b#	c #FD842F",
"c#	c #FC852D",
"d#	c #FC862B",
"e#	c #F9872D",
"f#	c #070C69",
"g#	c #0F2856",
"h#	c #001157",
"i#	c #060C60",
"j#	c #060D5E",
"k#	c #09145E",
"                      .                 .                 . . .                 . .                 ",
"                      .                 .           .   .               . . . .             + +     ",
"  . . .       +               + + +             . .     + + +   +                               +   ",
"  .   +       +     @                         @                     +             .     . . . . + + ",
"      +   . @ +     @   +   . . . .   . .   + @       @ @ @ .   @ @ + @ @         . +         .     ",
"    @ +   .   @   . @   +                     @                                     +               ",
"    @ +     . . @ . @   +       +             @           .                   .   +     @           ",
"    @ +               @ +   + +     . . . . @ # $ % &     .       + +         .         @   .       ",
"            + + +     . .   +               * = - ; > , .     +             .     + . . @   .       ",
"      . .             .     +           ' ) ! ~ { ] ^ / ( ' @       . . . .     +     . @   . +     ",
"        . .                   @ @ @   _ : < [ } | 1 2 3 4 5 6 @ @ @           + + +   . @   . +     ",
"            + + + +           .     7 8 9 2 0 a b c d e f g h i .       @           + + @     +     ",
"                            . .   j k l m 2 n o p q r s 0 3 t r u                                   ",
"      +     @       . . @ + + v w x y 0 z A B C D E F G H I J K L M           .           + . . .   ",
"    +     @ @         +     N O P Q R S T U V W X Y Y Z `  ...~ 0 0 +.@.      .           +         ",
"      + . @             @ #.$.%.&.*.=.-.;.>.,.'.).).).!.~.{.].^.2 R /.(._.+ .         @ +         . ",
"    . +               . :.<.[.}.|.1.2.3.4.).5.).6.7.8.).).9.0.a.b.c.2 d.e.f.+ + .   . @ +       . . ",
"    . +             g.h.i.j.j.k.l.m.n.o.p.).q.r.s.t.u.Y v.w.x.y.z.A.B.C.D.0 E.+ +     @       . .   ",
"        + + + + + F.G.H.0 2 I.J.K.L.M.).).N.O.P.Q.R.S.T.U.).V.Y W.X.Y.Z.~ 2 `. +.+  . @             ",
"                ++@+#+$+%+&+*+=+-+;+).).).>+,+'+)+!+~+{+]+).).).^+/+(+_+:+<+3 [+}+|+.   @           ",
"        @     1+2+Q 3+%+4+5+6+7+8+9+).).).0+e.a+)+)+b+c+d+).).).e+f+g+h+i+j+k+l+m+n+o+          +   ",
"        @     p+q+^ I r+s+t+u+v+).).).).).w+x+y+z+A+B+C+D+).).).).).).E+F+G+H+{ I+J+K++   .   . +   ",
"        @   . L+M+N+O+P+Q+Y v.6.).).).).).R+S+T+2.U+V+W+X ).).).).).).X+).Y+Z+`+B. @.@    .   + .   ",
"      . @     +@@@#@$@%@&@).).).).).).).).).*@=@-@;@>@).).).).).).).).).).,@'@)@!@G ~@  . .     .   ",
"    + + + @       {@]@).).).^@/@/@/@/@/@/@/@v.).).).5./@/@/@/@/@/@/@/@;+v.).(@_@:@.     .       .   ",
"    + .           <@[@).).}@|@1@1@1@1@1@1@2@3@q.).v.4@2@2@2@2@2@2@2@2@5@X ).6@7@8@+ + + @   @ @ .   ",
"    +       +     9@0@).).a@b@c@d@d@d@d@d@e@f@g@).).h@i@j@j@j@j@j@j@j@k@l@).m@7@n@  . @ @     @ .   ",
"    + +   . + +   o@0@).).p@: q@r@r@r@r@r@s@t@N.).).> u@v@w@w@w@w@w@x@y@z@).(@_@n@    .       @ .   ",
"      + .     +   o@0@).).p@: q@r@r@r@r@r@s@t@N.).).> A@3.B@B@B@B@B@Q.y@z@).(@_@n@      .   +       ",
"    . .     @ @   o@0@).).p@: q@r@r@r@r@r@s@t@N.).).> C@D@E@E@E@E@E@F@y@z@).(@_@n@      . +         ",
"    .     + + @   o@0@).).p@: q@r@r@r@r@r@s@t@N.).).> G@H@r@r@r@r@I@J@y@z@).(@_@n@      + +         ",
"            + @   o@0@).).p@: q@r@r@r@r@r@s@t@N.).).> G@I@r@r@r@r@I@K@y@z@).(@_@n@  + + +           ",
"            + .   L@0@).).p@: q@r@I@M@N@O@P@Q@N.).).> G@I@r@r@r@r@r@R@y@z@).(@_@n@.   @ @       . . ",
"            +     o@0@).).p@: q@r@I@S@T@U@V@:.N.).).> W@X@Y@Y@Y@Y@X@Z@`@ #).(@_@n@.   @ .     . .   ",
"            +     9@0@).).p@: q@r@r@r@.#.#s@t@N.).v.+#@#@#@#@#@#@#@#@###$#).(@_@n@.   . .           ",
"            +     9@0@).).p@: q@r@r@r@r@r@s@t@N.).).).).).).).).).).).).).).(@_@* @         +       ",
"          .       9@0@).).p@: q@r@r@r@r@r@s@t@N.).).).).).).).).).).).).).).(@_@n@      + @ +       ",
"    .     + .     %#0@).).p@: q@r@r@r@r@r@s@t@N.).).).).).).).).).).).).).).(@_@n@    +   @   .     ",
"    .   +   @     d@&#*#*#=#-#;#>#>#>#>#>#,#'#)#*#*#*#*#*#*#*#*#*#*#*#*#*#*#!#~#{#    +   @   .     ",
"    . +     @ ]#^#/#(#_#_#@#:#<#5 5 5 5 5 Q.[#d@_#_#_#_#_#_#_#_#_#_#_#_#_#_#}#|#1#2#3#+       .     ",
"  + +         U 4#5#6#6#6#6#6#6#6#6#6#6#6#6#6#6#6#6#6#6#6#6#6#6#6#6#6#6#6#6#6#6#7#8#9#+       .     ",
"  + .         0#a#b#c#d#d#d#d#d#d#d#d#d#d#d#d#d#d#d#d#d#d#d#d#d#d#d#d#d#d#d#d#d#d#e#f#      @       ",
"  @ @       + g#(#h#i#2.2.2.2.2.2.2.2.2.2.2.2.2.2.2.2.i#i#i#j#2.2.2.2.2.2.2.2.2.i+w k#      @       ",
"    @ +         .       @   +   .         .   .   .   . @ @ @       .           . .         @       ",
"    @ +         .       @       . + + . +   + @ @ @       @   .     + + + +         . .     +       ",
"    @ + @ . . . +           + . .       . . .             @ @ @   @ @                 .     + + . . ",
"      @ . @   + +           + .             . .         + + + + @ @ @ @ @ @ .                 +   . ",
"            +             + +   @       + + + + +           . .   + +         . + + + . .           ",
"      .               @ @ @ @ @ @                                   .                 +       .     ",
"    . .       .   .   . .   .                   .                 . .                         . .   "};
