/* XPM */
static char *_6523693e2da436187129e370e795397pxCojRoPuNZrKxAe[] = {
/* columns rows colors chars-per-pixel */
"50 50 4 1 ",
"  c #358838",
". c #2EA633",
"X c #4CAF50",
"o c #5FC063",
/* pixels */
"XXXXXXXXXXX.XXXXXXXX.XXXXXXXX...XXXXXXXX..XXXXXXXX",
"XXXXXXXXXXX.XXXXXXXX.XXXXX.X.XXXXXXX....XXXXXXooXX",
"X...XXXoXXXXXXXoooXXXXXX..XXoooXoXXXXXXXXXXXXXXXoX",
"X.XoXXXoXX XXXXXXXXXXXX XXXXXXXXXXoXXXXXX.XX....oo",
"XXXoX. oXX XoX....X..Xo XXX   .X  o  XXXX.oXXXX.XX",
"XX oX.X X. XoXXXXXXXXXX XXXXXXXXXXXXXXXXXXoXXXXXXX",
"XX oXX.. . XoXXXoXXXXXX XXXXX.XXXXXXXXX.XoXX XXXXX",
"XX oXXXXXXX oXooXX.... oo..XX.XXXooXXXX.XXXX X.XXX",
"XXXXXXoooXX..XoXXXXXXXXXoXXX.XXoXXXXXX.XXo.. X.XXX",
"XXX..XXXXXX.XXoXXXXXXXXXoXXX.X XXX....XXoXX. X.oXX",
"XXXX..XXXXXXXXX   X XXXXXXXXXoX   XXXXXoooX. X.oXX",
"XXXXXXooooXXXXX.XXXXXX....XXXXXX.XXX XXXXXoo XXoXX",
"XXXXXXXXXXXXXX..XXXXo.ooooX  XXX.XXXXXXXXXXXXXXXXX",
"XXXoXX XXX.. ooXXX XXoXXXX XXXXo.XXXXXX.XXXXXo...X",
"XXoXX  XXXXoXXXXXX XXo XXX XXXXoXXXXXXX.XXXXXoXXXX",
"XXXo. XXXXXX XXXXXXXXo XXXXXX.XoXXXoXo.XXXX oXXXX.",
"XX.oXXXXXXX.. oX.XX..o XoXX.X.XXXX. Xooo.X. oXXX..",
"XX.oXXXXXXXXX XooXXXXXXXXoooo.XXXX  X.XooXX XXX..X",
"XXXXoooooXXXXXXXXoooX.XXXX.XX.XX  .oXXXXXX. XXXXXX",
"XXXXXXXX.ooXoXXXXXXXoXXXXX.XXo.XXXXoXXXXXX.X XXXXX",
"XXXX XXXX..XoXXXXX..XXXXXX.XXXo.X.XXo.XXXX.XXXXXoX",
"XXXX XXXXXXXXXo...XXooXXXXXXXXXo..XXXXX XoooX.X.oX",
"XXXX X.X.XXXXX oXXXXXoXXXXXXX X  XXXXX ooXXXX.Xo.X",
"XXX. XXXX.X.XX ooXXXXXXXXXoooXXXooXXXXXXXXXX..XX.X",
"XXooo XXXXXX. XXoXXX XX ooo.XXX.Xo.X..XXX.XX.XXX.X",
"XXo.XXXXXXXX XXXX XXXXX XXXXXXXXooXXX X.Xooo X  .X",
"XXoXXXoXXX  XXXXX XXXXX  XXXXXXXoXXX XX.XX.  XX .X",
"XXooX.ooXXXXX.XXXXXXXXXo oXXXXXoooXX..X.XXX.XXX .X",
"XXXo.XXoXXXoooooXXXXXo ..o  ....XoXo.ooX.XXX.XoXXX",
"XX..XX  XXXXXX.XXXXoo  X.XXXX XXXXX.XXXXXXXX.oXXXX",
"XX.XXoo XXXXXXXXXXXXX XXX.XXoX XXX.XXXXX.XXXooXXXX",
"XXXXXXo XXX.XXoX XXX..XXXX.XoXX  X.XXXXXXXoooXXXXX",
"XXXXXXo.X.oXXXo XX..XXXXXXXXoXXo  XoXXXoX.X  XXX..",
"XXXXXXoXXXoXXXX X.oXX.XXXXXXoX.oX.XoXXXoX.X .XX..X",
"XXXXXXoXXXoXXXXXX.XoXX.XXooXXXXo.XXX     .X..XXXXX",
"XXXXXXoXXoXXXXX XXXoXX oooXXXXXXX.XXXoXX  XXXXoXXX",
"XXXXX.XXXoXXXX  XXXoX XXXXXXXXXXXXXXXXooXXXXo oXXX",
"XX.XXo.XXXXXX.X.XXX  XXXXXoX XXXXXXXXXXXXXXoX X.XX",
"XX.XoX XXXXXX.XXX XXXXoX.Xo  XXooX....XX XXoX X.XX",
"XX.oXX  XoXX.XXXoXXXXoXX.XoXXXXXoXXXX.XX X.oXXX.XX",
"XooXXXX.ooXX.XXXX.XXoXXX.XoXXXXXoXXXoooX .ooXXX.XX",
"Xo.XXXXooXX.XXXoX.XXXXXXX.o..XXXX X..XXX XoXXX XXX",
"X  XXXoXXX.X XoXX.XXXXXXXXXX.XX   X.XXXX oXXXX XXX",
"XX oXXXX.XXX XoX.XXXX.X.X.X.   XXX.XXXXX..XXXX XXX",
"XX oXXXX.XXX XXX.oo.oXo   XXX X.XXooooXXXX..XXoXXX",
"XX o ...oXXXXXo..XXX...XXXXXX   X  XXXXXXXX.XXoo..",
"XXX . XooXXXXXo.XXXXXX..XXXXoooo      .XXXXXXXXoX.",
"XXXXXXoXXXXXXooX XXXoooooXXXXX..XooXXXX.ooo..XXXXX",
"XXX.XXXXXXX      XXXXXXXXXXXXXXXXX.XXXXXXXXoXXX.XX",
"XX..XXX.X.X..X.XXXXXXXXX.XXXXXXXX..XXXXXXXXXXXX..X"
};
