/* XPM */
static char * tondeuse_xpm[] = {
"50 50 643 2",
"  	c #4CAF50",
". 	c #2EA633",
"+ 	c #4BAD4F",
"@ 	c #439246",
"# 	c #439046",
"$ 	c #449347",
"% 	c #5FC063",
"& 	c #5DBB61",
"* 	c #2B362B",
"= 	c #2C2F2C",
"- 	c #2B392C",
"; 	c #358838",
"> 	c #396D3B",
", 	c #2F412F",
"' 	c #454745",
") 	c #434443",
"! 	c #314932",
"~ 	c #408943",
"{ 	c #348537",
"] 	c #2D9531",
"^ 	c #375737",
"/ 	c #313231",
"( 	c #4D4D4D",
"_ 	c #4D4E4D",
": 	c #303230",
"< 	c #3C733E",
"[ 	c #469E4A",
"} 	c #469D49",
"| 	c #2F3B2F",
"1 	c #3E403E",
"2 	c #474947",
"3 	c #6D726D",
"4 	c #6D746E",
"5 	c #6E736E",
"6 	c #444544",
"7 	c #393C39",
"8 	c #304631",
"9 	c #3A6F3C",
"0 	c #315232",
"a 	c #5E5E5E",
"b 	c #626F62",
"c 	c #52A655",
"d 	c #53A656",
"e 	c #54A757",
"f 	c #626C63",
"g 	c #555655",
"h 	c #3F423F",
"i 	c #2C5A2E",
"j 	c #418844",
"k 	c #2EA532",
"l 	c #4AAA4E",
"m 	c #2C432C",
"n 	c #323332",
"o 	c #4A4B4A",
"p 	c #637264",
"q 	c #5F8760",
"r 	c #608361",
"s 	c #586959",
"t 	c #4B4C4B",
"u 	c #2A2B2A",
"v 	c #366C38",
"w 	c #4AAB4E",
"x 	c #439346",
"y 	c #303B30",
"z 	c #4F524F",
"A 	c #687469",
"B 	c #61B664",
"C 	c #5A9D5C",
"D 	c #677367",
"E 	c #464746",
"F 	c #3E413E",
"G 	c #334A34",
"H 	c #2D9E32",
"I 	c #3D7E3F",
"J 	c #3B663C",
"K 	c #3A3C3A",
"L 	c #5C5C5C",
"M 	c #5B765C",
"N 	c #4B814D",
"O 	c #4EAD51",
"P 	c #38A13B",
"Q 	c #59A05B",
"R 	c #5A6A5B",
"S 	c #535453",
"T 	c #3B3E3B",
"U 	c #2E8230",
"V 	c #2E3B2E",
"W 	c #343634",
"X 	c #424342",
"Y 	c #687069",
"Z 	c #659967",
"` 	c #679269",
" .	c #5D725E",
"..	c #2E312E",
"+.	c #2D532E",
"@.	c #2D7D2F",
"#.	c #2B392B",
"$.	c #555755",
"%.	c #6A746A",
"&.	c #4EAC52",
"*.	c #55A357",
"=.	c #667767",
"-.	c #4D504D",
";.	c #414442",
">.	c #2C3C2C",
",.	c #459A48",
"'.	c #4E9551",
").	c #416C42",
"!.	c #383B38",
"~.	c #5A5B5A",
"{.	c #587459",
"].	c #527F53",
"^.	c #368739",
"/.	c #4FAA53",
"(.	c #599C5B",
"_.	c #475A47",
":.	c #404140",
"<.	c #373A37",
"[.	c #3C743E",
"}.	c #428C44",
"|.	c #2C382C",
"1.	c #454645",
"2.	c #6A6F6A",
"3.	c #5D7F5D",
"4.	c #4E6C4E",
"5.	c #353C35",
"6.	c #2F5730",
"7.	c #3C773E",
"8.	c #323632",
"9.	c #464646",
"0.	c #585958",
"a.	c #6E726E",
"b.	c #459949",
"c.	c #304130",
"d.	c #3B3D3B",
"e.	c #474847",
"f.	c #6A6E6A",
"g.	c #61AC64",
"h.	c #459848",
"i.	c #376038",
"j.	c #323432",
"k.	c #515251",
"l.	c #5C745C",
"m.	c #618E62",
"n.	c #459948",
"o.	c #3F8342",
"p.	c #353B35",
"q.	c #545A54",
"r.	c #6A9A6B",
"s.	c #54A857",
"t.	c #49A64D",
"u.	c #2B352B",
"v.	c #3C3D3C",
"w.	c #6D706D",
"x.	c #5A9A5C",
"y.	c #344C35",
"z.	c #323532",
"A.	c #656B65",
"B.	c #5F7460",
"C.	c #396F3B",
"D.	c #334D33",
"E.	c #595A59",
"F.	c #686E68",
"G.	c #50A953",
"H.	c #4DAC51",
"I.	c #2D8D31",
"J.	c #325633",
"K.	c #424543",
"L.	c #696E69",
"M.	c #54A357",
"N.	c #3D873F",
"O.	c #3A563B",
"P.	c #2F312F",
"Q.	c #494B49",
"R.	c #616D61",
"S.	c #608061",
"T.	c #408542",
"U.	c #484948",
"V.	c #535F54",
"W.	c #648565",
"X.	c #35A239",
"Y.	c #449747",
"Z.	c #2E392E",
"`.	c #414341",
" +	c #6C716C",
".+	c #63AE66",
"++	c #373B37",
"@+	c #386139",
"#+	c #626D62",
"$+	c #479849",
"%+	c #48864A",
"&+	c #447545",
"*+	c #3F7241",
"=+	c #407342",
"-+	c #417443",
";+	c #407442",
">+	c #328A35",
",+	c #429045",
"'+	c #39713B",
")+	c #3E433E",
"!+	c #606560",
"~+	c #579F59",
"{+	c #51A754",
"]+	c #272A27",
"^+	c #343534",
"/+	c #646464",
"(+	c #647464",
"_+	c #467948",
":+	c #373837",
"<+	c #353635",
"[+	c #3E3F3E",
"}+	c #407842",
"|+	c #3E7A40",
"1+	c #2D302D",
"2+	c #3F403F",
"3+	c #545954",
"4+	c #627D63",
"5+	c #428E45",
"6+	c #2D382D",
"7+	c #4F504F",
"8+	c #6C6C6C",
"9+	c #939393",
"0+	c #8B8B8B",
"a+	c #383938",
"b+	c #3A3B3A",
"c+	c #393A39",
"d+	c #767676",
"e+	c #747474",
"f+	c #757575",
"g+	c #4C4D4C",
"h+	c #3C4D3C",
"i+	c #4BAB4F",
"j+	c #2C422D",
"k+	c #393E3A",
"l+	c #717571",
"m+	c #609462",
"n+	c #2C7B2F",
"o+	c #3C683D",
"p+	c #383A38",
"q+	c #5A5A5A",
"r+	c #676867",
"s+	c #828282",
"t+	c #6D6D6D",
"u+	c #676767",
"v+	c #5B5C5B",
"w+	c #737373",
"x+	c #6F6F6F",
"y+	c #6E6E6E",
"z+	c #5D5E5D",
"A+	c #525352",
"B+	c #414241",
"C+	c #49864B",
"D+	c #469249",
"E+	c #408C43",
"F+	c #49894C",
"G+	c #3A3F3A",
"H+	c #5D635D",
"I+	c #5C9A5E",
"J+	c #53A556",
"K+	c #2D342D",
"L+	c #353735",
"M+	c #414141",
"N+	c #797979",
"O+	c #969696",
"P+	c #505150",
"Q+	c #4E4F4E",
"R+	c #6B6C6B",
"S+	c #616261",
"T+	c #494A49",
"U+	c #406B41",
"V+	c #2B582C",
"W+	c #2E332E",
"X+	c #5D625D",
"Y+	c #677A67",
"Z+	c #393B3A",
"`+	c #4E4D50",
" @	c #6C6C6E",
".@	c #949496",
"+@	c #808082",
"@@	c #464748",
"#@	c #6F6F71",
"$@	c #727274",
"%@	c #747476",
"&@	c #69696B",
"*@	c #676769",
"=@	c #646466",
"-@	c #636365",
";@	c #616163",
">@	c #6A6A6A",
",@	c #2B2E2B",
"'@	c #3C3E3C",
")@	c #4C4E4C",
"!@	c #6C706C",
"~@	c #5B9E5D",
"{@	c #4CAE50",
"]@	c #48944B",
"^@	c #459149",
"/@	c #39733A",
"(@	c #4E4C4F",
"_@	c #5B5A5C",
":@	c #88888A",
"<@	c #757577",
"[@	c #58595A",
"}@	c #717173",
"|@	c #6A6A6C",
"1@	c #5F5F61",
"2@	c #606062",
"3@	c #707070",
"4@	c #525A52",
"5@	c #53A456",
"6@	c #393D3A",
"7@	c #39393A",
"8@	c #3D3D3E",
"9@	c #6F6D70",
"0@	c #6A696B",
"a@	c #5A5A5C",
"b@	c #707072",
"c@	c #6E6E70",
"d@	c #666668",
"e@	c #5A5B5C",
"f@	c #5C5D5E",
"g@	c #5B5B5D",
"h@	c #727272",
"i@	c #2E2F2E",
"j@	c #656665",
"k@	c #6B796B",
"l@	c #427244",
"m@	c #3D4A3E",
"n@	c #49484A",
"o@	c #636164",
"p@	c #79777A",
"q@	c #727173",
"r@	c #6B6C6D",
"s@	c #606162",
"t@	c #6D6D6F",
"u@	c #656567",
"v@	c #2B2C2D",
"w@	c #2A2B2C",
"x@	c #28292A",
"y@	c #696969",
"z@	c #434643",
"A@	c #425942",
"B@	c #47974A",
"C@	c #499D4C",
"D@	c #3B4C3C",
"E@	c #413F42",
"F@	c #525153",
"G@	c #626063",
"H@	c #706E71",
"I@	c #706F71",
"J@	c #5C5C5E",
"K@	c #626264",
"L@	c #68696A",
"M@	c #555657",
"N@	c #4B4B4D",
"O@	c #272829",
"P@	c #262828",
"Q@	c #252727",
"R@	c #626262",
"S@	c #303130",
"T@	c #525252",
"U@	c #636363",
"V@	c #468449",
"W@	c #2F9733",
"X@	c #489D4C",
"Y@	c #3C443E",
"Z@	c #454446",
"`@	c #4A484B",
" #	c #737174",
".#	c #666467",
"+#	c #5E5D5F",
"@#	c #686669",
"##	c #6E6D70",
"$#	c #737375",
"%#	c #68686A",
"&#	c #3F4041",
"*#	c #242526",
"=#	c #272929",
"-#	c #232525",
";#	c #2C2D2C",
">#	c #333433",
",#	c #686968",
"'#	c #656565",
")#	c #6B6B6B",
"!#	c #505250",
"~#	c #3C4E3C",
"{#	c #465F48",
"]#	c #727074",
"^#	c #716F73",
"/#	c #4F4E50",
"(#	c #615F62",
"_#	c #6D6B6E",
":#	c #605E61",
"<#	c #656466",
"[#	c #3A3B3C",
"}#	c #343536",
"|#	c #242626",
"1#	c #2B2D2D",
"2#	c #7C7C7C",
"3#	c #3C453C",
"4#	c #3B4B3C",
"5#	c #474848",
"6#	c #787679",
"7#	c #7E7A80",
"8#	c #5D5D5F",
"9#	c #303132",
"0#	c #222424",
"a#	c #282A2A",
"b#	c #2F3031",
"c#	c #717171",
"d#	c #7B7B7B",
"e#	c #3F4A3F",
"f#	c #3B4C3B",
"g#	c #464747",
"h#	c #7E7D80",
"i#	c #7B797C",
"j#	c #807D81",
"k#	c #5B595C",
"l#	c #484749",
"m#	c #757376",
"n#	c #6F6E71",
"o#	c #49494B",
"p#	c #38393A",
"q#	c #444546",
"r#	c #787878",
"s#	c #777777",
"t#	c #3D483D",
"u#	c #79797B",
"v#	c #716F72",
"w#	c #5F5E60",
"x#	c #585759",
"y#	c #626164",
"z#	c #3B3C3D",
"A#	c #353637",
"B#	c #4E4F50",
"C#	c #868686",
"D#	c #848484",
"E#	c #838383",
"F#	c #6C6D6C",
"G#	c #3A443A",
"H#	c #494A4A",
"I#	c #7B7B7D",
"J#	c #6B696C",
"K#	c #6C6B6D",
"L#	c #4B4A4C",
"M#	c #292B2B",
"N#	c #444446",
"O#	c #989898",
"P#	c #888888",
"Q#	c #7D7D7D",
"R#	c #3C463C",
"S#	c #3D4D3D",
"T#	c #777779",
"U#	c #7A787B",
"V#	c #6C6A6D",
"W#	c #6D6C6E",
"X#	c #6E6C6F",
"Y#	c #69676A",
"Z#	c #262728",
"`#	c #454647",
" $	c #474849",
".$	c #858587",
"+$	c #969698",
"@$	c #7A7A7A",
"#$	c #3C473C",
"$$	c #3D4D3E",
"%$	c #404141",
"&$	c #575859",
"*$	c #5B585C",
"=$	c #5D5C5F",
"-$	c #5E5D60",
";$	c #343436",
">$	c #363637",
",$	c #373739",
"'$	c #353536",
")$	c #38383A",
"!$	c #5F5E61",
"~$	c #767477",
"{$	c #818083",
"]$	c #88878A",
"^$	c #6F6E70",
"/$	c #696869",
"($	c #6C6B6C",
"_$	c #747275",
":$	c #7D7C7D",
"<$	c #3C4A3D",
"[$	c #3E5041",
"}$	c #363738",
"|$	c #393A3B",
"1$	c #3A3A3B",
"2$	c #3C3B3D",
"3$	c #464547",
"4$	c #727073",
"5$	c #7E7B80",
"6$	c #7E7C80",
"7$	c #6A686B",
"8$	c #7C7A7E",
"9$	c #535254",
"0$	c #384A39",
"a$	c #9BAB9B",
"b$	c #9D9D9F",
"c$	c #828284",
"d$	c #444346",
"e$	c #3F3E40",
"f$	c #7C7A7D",
"g$	c #7D7B80",
"h$	c #848286",
"i$	c #827D83",
"j$	c #817C82",
"k$	c #676568",
"l$	c #3A393B",
"m$	c #3D533E",
"n$	c #8FAB92",
"o$	c #A3A3A4",
"p$	c #8C8C8D",
"q$	c #4A494A",
"r$	c #3E3D3E",
"s$	c #676667",
"t$	c #605F60",
"u$	c #5D5C5D",
"v$	c #737173",
"w$	c #777478",
"x$	c #777578",
"y$	c #737074",
"z$	c #646265",
"A$	c #605F61",
"B$	c #323433",
"C$	c #3D633E",
"D$	c #458A47",
"E$	c #82B884",
"F$	c #9DB59D",
"G$	c #96A496",
"H$	c #4C504B",
"I$	c #373636",
"J$	c #3B3A3A",
"K$	c #393838",
"L$	c #3D3C3C",
"M$	c #7C797A",
"N$	c #747274",
"O$	c #6B6A6C",
"P$	c #7D7A7E",
"Q$	c #3A3E3B",
"R$	c #3B423C",
"S$	c #3A463B",
"T$	c #293A2A",
"U$	c #439647",
"V$	c #51B055",
"W$	c #55AF58",
"X$	c #57AE5A",
"Y$	c #73AC73",
"Z$	c #959394",
"`$	c #737172",
" %	c #504F4F",
".%	c #797778",
"+%	c #7A787A",
"@%	c #7B797E",
"#%	c #414042",
"$%	c #111312",
"%%	c #0F1110",
"&%	c #212222",
"*%	c #434244",
"=%	c #456946",
"-%	c #4AA64E",
";%	c #368239",
">%	c #358238",
",%	c #348237",
"'%	c #63AD66",
")%	c #A8A6A7",
"!%	c #827E80",
"~%	c #565454",
"{%	c #6C6A6B",
"]%	c #6F6D6F",
"^%	c #151516",
"/%	c #0A0D0B",
"(%	c #181918",
"_%	c #343335",
":%	c #364936",
"<%	c #39693D",
"[%	c #5EB061",
"}%	c #A5BAA4",
"|%	c #8FA28D",
"1%	c #5B655A",
"2%	c #383737",
"3%	c #393839",
"4%	c #39383A",
"5%	c #6E6D6F",
"6%	c #77757A",
"7%	c #030705",
"8%	c #4D4B4E",
"9%	c #838084",
"0%	c #3F3F3F",
"a%	c #282A28",
"b%	c #030803",
"c%	c #44A847",
"d%	c #6BBE6E",
"e%	c #619761",
"f%	c #7F7F7D",
"g%	c #6A6869",
"h%	c #545353",
"i%	c #3C3C3C",
"j%	c #747374",
"k%	c #777677",
"l%	c #7B7A7B",
"m%	c #717172",
"n%	c #545454",
"o%	c #010501",
"p%	c #2F2F2F",
"q%	c #535354",
"r%	c #020702",
"s%	c #5BAE5E",
"t%	c #A1A3A0",
"u%	c #7D7B7C",
"v%	c #5C5C5B",
"w%	c #3B3C3B",
"x%	c #818181",
"y%	c #707170",
"z%	c #4D564D",
"A%	c #3A423A",
"B%	c #383F38",
"C%	c #272927",
"D%	c #081008",
"E%	c #5CBB60",
"F%	c #ABBCA8",
"G%	c #9BA598",
"H%	c #71796F",
"I%	c #383E38",
"J%	c #404440",
"K%	c #383C38",
"L%	c #393B39",
"M%	c #3F6040",
"N%	c #030D03",
"O%	c #040D04",
"P%	c #2E7031",
"Q%	c #59B05A",
"R%	c #588D57",
"S%	c #477E47",
"T%	c #357037",
"U%	c #377039",
"V%	c #38703A",
"W%	c #458D47",
"X%	c #429A46",
"Y%	c #39873C",
"Z%	c #419844",
"                      .                 .                 . . .                 . .                 ",
"                      .                 .           .   .       + @ # $ . . . .             % %     ",
"  . . .       %               % % %             . .     % % %   & * = -                         %   ",
"  .   %       %     ;                         ;               > , ' ) ' ! ~       .     . . . . % % ",
"      %   . ; %     ;   %   . . . .   . .   % ;       ; ; { ] ^ / ( _ ( : < [     . %         .     ",
"    ; %   .   ;   . ;   %                     ;           } | 1 2 3 4 5 6 7 8       %               ",
"    ; %     . . ; . ;   %       %             ;         9 0 1 a b c d e f g h i j %     ;           ",
"    ; %               ; %   % %     . . . . ; % % . k l m n o p q % %   r s t u v w     ;   .       ",
"            % % %     . .   %                   %   x y 6 z A B           C D E F G H . ;   .       ",
"      . .             .     %                   % I J K L M N O     . . . P Q R S T < U ;   . %     ",
"        . .                   ; ; ;   ;           V W X Y Z   ; ; ;           `  .) ..+.;   . %     ",
"            % % % %           .             . @.#.6 $.%.&.      .       ;       *.=.-.;.>.,.  %     ",
"                            . .         % . '.).!.~.{.].^.      .               /.(._.:.<.[.}.      ",
"      %     ;       . . ; % %       ;     % |.K 1.2.3.        % .             .     4.) 1.5.6.. .   ",
"    %     ; ;         %             ;   7.8.9.0.a.  ;         %               . b.c.d.e.f.g.        ",
"      % . ;             ;           + h.i.j.k.l.m.        .   %       %   % . n.o.p.t q.r.s.      . ",
"    . %               . . ; %   .   t.u.v.) w.x.%     .   .         . ;   % % y.z.) A.B.%       . . ",
"    . %                   ;   % % C.D.) E.F.G.H.  % % % % .         ; ;   I.J.K._ L.M.N.      . .   ",
"        % % % % %             + t.O.P.Q.R.S.        .     .     ; ; . % t.T.8.U.V.W.X.;             ",
"                . % %   %     Y.Z.`.e. +.+          .     % .         % 8 ++)  +m.  .   ;           ",
"        ;         . .   %   7.@+1 ~.#+$+%+&+*+=+-+;+>+      % .   . ,+'+)+_ !+~+{+  .           %   ",
"        ;                   ]+^+X /+(+  _+:+:+<+:+[+}+        % . . |+1+2+3+4+;   % % %   .   . %   ",
"        ;   .   .       5+6+9.7+8+9+0+a+b+c+d+e+f+g g+h+i+;   ; { j+k+:.l+m+; % %         .   % .   ",
"      . ;         .   n+o+p+q+r+s+t+u+v+k._ w+x+y+z+A+B+C+D+  E+F+G+7+H+I+J+            . .     .   ",
"    % % % ;           K+L+M+x+N+O+P+Q+e+/+~.e+y+R+S+g T+a+U+  V+W+) X+Y+. .       .     .       .   ",
"    % .               Z+`+ @.@+@@@#@$@%@&@*@=@-@;@>@8+e+U.:.,@'@)@!@~@    ;   .   % % % ;   ; ; .   ",
"    %       % {@]@^@/@(@_@=@:@<@[@&@ @}@ @|@;@1@2@>@3@w+) a+<+Q+4@m.5@  ;     .     . ; ;     ; .   ",
"    % %   . % & 6@7@8@9@0@a@b@c@%@;@1@d@|@}@e@f@g@3@w+h@n i@1.j@k@%     . .   .       .       ; .   ",
"      % .   l@m@n@o@9@p@q@r@s@s@#@t@#@u@=@s@v@w@x@d+q+n :._ y@A+z@A@B@% . % %   .       .   %       ",
"    . . i+C@D@E@F@G@H@9@I@}@J@K@ @c@}@L@M@N@O@P@Q@R@Q+S@o T@U@S A+E V@W@                . %         ",
"    .   X@Y@Z@`@ #.#+#@###$# @%#f@b@%@$#&#*#=#-#-#;#>#1.,#'#9.)#f+e+!#~#        .       % %         ",
"      =+{#|@]#^#/#(#_#:#<#K@}@t@c@[#}#}#w@|#|#P@1#2+_ U@A+g x+w+e+2#P+3#            % % %           ",
"      4#5#<@6#7#n@o@H@:#8#1@t@}@b@9#Q@-#-#-#0#a#b#e.0.3@g+A+3@w+c#d#k.e#      %   .   ; ;       . . ",
"      f#g#<@h#i#j#k#l#m#n#&@f@o#=#0#Q@|#Q@|#1#p#q#8+d#9+r#w+t+t+)#s#7+t#      %   .   ; .     . .   ",
"      h+T+u# #v# #.#w#x#y##@z#A#Q@-#|#|#P@a#z#B#1@C#D#E#f+e+>@F#8+N+P+G#; ; ; ; ; .   . .           ",
"      f#H#I# #J#9@K#J#L#8#%@a#*#Q@0#-#P@a#M#N#e@r@O#P#e+h@c#8+8+y+Q#A+R#  %     ; ;         %       ",
"      S#e.T#p@U#V#W#X#Y#J@q#*#Z#0#P@a#`# $o# @.$+$h@e+y+x+>@8+)#8+@$k.#$    % %         % ; %       ",
"    . $$%$&$*$=$V#9@Y#H@<#-$;$>$,$'$)$+#!$!$~${$]$q@^$/$K#($K#_$q@:$T@<$              %   ;   .     ",
"    . [$}$|$1$2$V#V#V#9@v#_$n@l#3$`@/#m#_$4$5$6$5$7$K#X#9@V#_#p@8$i#9$0$. .     ;     %   ;   .     ",
"    . a$b$c$d$e$f$_$9@.#J#4$v#6#~$m# #g$h$i$j$]#X#H@W#Y#k$X# #m#9@e$l$m$  .     ;   . %       .     ",
"  % % n$o$p$q$r$s$t$u$v$H@V# # # # #_$w$~$m#x$ #_#J#X#y$ #_#o@z$A$B$C$D$% % %   ; . % %       .     ",
"  % . E$F$G$H$I$J$K$L$M$N$J#_#O$V#J#_#V#X#X#V#V#_#V# #f$P$n#Q$R$S$T$U$. .       ;   %       ;       ",
"  ; ; V$W$X$Y$Z$`$ %I$.%+%@%W#_#X#J#9@V#7$H@p@#%$%%%&%*%e$=%-%;%>%,%+ .         ; %         ;       ",
"    ; %     '%)%!%~%J${%]%x$O$X#H@7$X#X#X#9@_#2$^%/%(%_%:%<%;       .           . .         ;       ",
"    ; %     [%}%|%1%J$2%3%4%x$6#f$9@5%_#6%5$7%8%9%0%a%b%l ;   .     % % % %         . .     %       ",
"    ; % ; . . c%d%e%f%g%h%i%j%k%l%m%x+n%T@_ o%p%q%y+1.r%l ; ; ;   ; ;                 .     % % . . ",
"      ; . ;   % % s%t%u%v%w%t+r#x%f+y%z%A%B%b%C%B+2#A+D%E%% % % ; ; ; ; ; ; .                 %   . ",
"            %       F%G%H%I%J%K%L%<.M%  % % % T.N%O%P%      . .   % %         . % % % . .           ",
"      .             Q%R%S%T%U%V%'+W%B@        X%Y%Y%Z%              .                 %       .     ",
"    . .       .   .   . .   .                   .                 . .                         . .   "};
