/* XPM */
static char *_32bc4e356914d22fa789d79f415e021XCh7xYHZHuG244T9[] = {
/* columns rows colors chars-per-pixel */
"50 50 244 2 ",
"   c #1E160B",
".  c #2B0D09",
"X  c #3A0E0B",
"o  c #2C160B",
"O  c #34120C",
"+  c #3C150E",
"@  c #37190A",
"#  c #3B1A0B",
"$  c #310E17",
"%  c #271815",
"&  c #2A1A16",
"*  c #2B1C1B",
"=  c #351615",
"-  c #3D1B14",
";  c #3C1C1B",
":  c #2B211A",
">  c #3E231B",
",  c #2B1D23",
"<  c #2F2325",
"1  c #3F2422",
"2  c #46170C",
"3  c #50110C",
"4  c #491514",
"5  c #431B14",
"6  c #4C1D15",
"7  c #421D1B",
"8  c #4C1D1A",
"9  c #561D18",
"0  c #681916",
"q  c #781E1B",
"w  c #472618",
"e  c #44241D",
"r  c #4D231B",
"t  c #562619",
"y  c #54221C",
"u  c #5D221A",
"i  c #6C251B",
"p  c #65281B",
"a  c #73231B",
"s  c #7C241D",
"d  c #782A1B",
"f  c #72331D",
"g  c #472926",
"h  c #572823",
"j  c #493427",
"k  c #5D332C",
"l  c #4B3639",
"z  c #5A3536",
"x  c #662A24",
"c  c #742726",
"v  c #7B2523",
"b  c #742B24",
"n  c #7C2B24",
"m  c #683228",
"M  c #773227",
"N  c #7B3325",
"B  c #7C3A2C",
"V  c #6B3332",
"C  c #633A3A",
"Z  c #763831",
"A  c #594237",
"S  c #664227",
"D  c #7E482F",
"F  c #694337",
"G  c #78473A",
"H  c #69523D",
"J  c #7B5338",
"K  c #574B46",
"L  c #694A47",
"P  c #7A504B",
"I  c #7B5748",
"U  c #766B51",
"Y  c #84251C",
"T  c #8D231D",
"R  c #85291D",
"E  c #8B2B1E",
"W  c #96291F",
"Q  c #8A321E",
"!  c #8A391E",
"~  c #95321E",
"^  c #832622",
"/  c #8B2623",
"(  c #852C24",
")  c #8C2C24",
"_  c #8A262A",
"`  c #842D2C",
"'  c #8D2D2A",
"]  c #922625",
"[  c #932D24",
"{  c #9A2D24",
"}  c #942D2A",
"|  c #9C2F29",
" . c #843325",
".. c #8C3325",
"X. c #833A23",
"o. c #8C3C26",
"O. c #84342B",
"+. c #8C332B",
"@. c #843B2C",
"#. c #8C392D",
"$. c #933225",
"%. c #9B3326",
"&. c #943A25",
"*. c #9B3B26",
"=. c #94342B",
"-. c #9B342B",
";. c #953B2C",
":. c #9C3B2C",
">. c #833632",
",. c #8D3531",
"<. c #8D3B35",
"1. c #943432",
"2. c #9B3532",
"3. c #953C32",
"4. c #9C3C32",
"5. c #99383A",
"6. c #A22E29",
"7. c #A33327",
"8. c #A2352C",
"9. c #A43928",
"0. c #A33B2D",
"q. c #A93C2E",
"w. c #A13632",
"e. c #A33C32",
"r. c #A93F36",
"t. c #A43E3B",
"y. c #87472B",
"u. c #964628",
"i. c #94422C",
"p. c #9C422D",
"a. c #9C4A2C",
"s. c #874634",
"d. c #944233",
"f. c #9C4332",
"g. c #944933",
"h. c #9D4B34",
"j. c #964439",
"k. c #9D433B",
"l. c #9B4B3C",
"z. c #8B553B",
"x. c #9C5336",
"c. c #9B553C",
"v. c #965839",
"b. c #A3432D",
"n. c #A9452B",
"m. c #A44A2D",
"M. c #B14B2F",
"N. c #A2542B",
"B. c #A44333",
"V. c #AA4433",
"C. c #A44B34",
"Z. c #AA4B34",
"A. c #A3433A",
"S. c #AA4539",
"D. c #A34C3B",
"F. c #AA4B3A",
"G. c #B24D35",
"H. c #B34738",
"J. c #A75739",
"K. c #A5543E",
"L. c #AB523D",
"P. c #B3563D",
"I. c #996139",
"U. c #A4653B",
"Y. c #B56031",
"T. c #894944",
"R. c #9C4441",
"E. c #994A42",
"W. c #895747",
"Q. c #965947",
"!. c #875B54",
"~. c #9B5E58",
"^. c #A54C45",
"/. c #AC4C43",
"(. c #B24941",
"). c #A35242",
"_. c #AC5342",
"`. c #A35C43",
"'. c #AC5C43",
"]. c #A6594A",
"[. c #B25947",
"{. c #A45A51",
"}. c #B45C54",
"|. c #8F6A47",
" X c #9A674B",
".X c #8C655B",
"XX c #906F58",
"oX c #99765A",
"OX c #A86548",
"+X c #B36448",
"@X c #AA7148",
"#X c #A56756",
"$X c #AC6252",
"%X c #AB6A54",
"&X c #B56856",
"*X c #AA7457",
"=X c #B3735B",
"-X c #B77858",
";X c #8B5E60",
":X c #8C6563",
">X c #8E6B6E",
",X c #987766",
"<X c #977A71",
"1X c #A56B63",
"2X c #B36F60",
"3X c #A67767",
"4X c #B57867",
"5X c #AA7874",
"6X c #B97C74",
"7X c #C26758",
"8X c #C17869",
"9X c #C57371",
"0X c #9F845B",
"qX c #AB8359",
"wX c #9B8C7A",
"eX c #AA8468",
"rX c #B68569",
"tX c #A4936C",
"yX c #AB8372",
"uX c #A78B78",
"iX c #B78B78",
"pX c #B69279",
"aX c #C5847C",
"sX c #9C9686",
"dX c #A98985",
"fX c #B78D87",
"gX c #A7968A",
"hX c #B7968B",
"jX c #AC8791",
"kX c #AA9A94",
"lX c #B79C95",
"zX c #B6A58B",
"xX c #B7A698",
"cX c #B9A6A6",
"vX c #BBB6AA",
"bX c #BBB9B8",
"nX c #C08E87",
"mX c #C39A88",
"MX c #C5A399",
"NX c #C3ABA5",
"BX c #C7ACA9",
"VX c #C4B5AA",
"CX c #C4A7B2",
"ZX c #C7BAB8",
/* pixels */
"A.=.9.F *Xo.9. .s *.G.*.4.Z '.;.i.D.o.a.OXT.I.*.M $.n.=.s E.h P.=.:.=.~ 4.+...<X .:.) $.s $...9 ;.;.",
"e.=.) p N.g.`.-.%.*.-.8.V.( 0...$.C.m.C.P.s.v.p.=.Q.*.7X$X) -.Z.[ W / { 4.%.b.wXf.:.=.) ;.;.) =.....",
"[ } ( @.! N M.%.9.[ ^.$.-.N 9.( E p.C.D.$.W.v.( ) S.%.(.F.b  .{ ) k.-.{ E 0.Z.|.s $.-.A.} ;.=.4.:.&.",
"2 6 5 3 g m t @   w c + m p f # i p t + r 5XI.f.B.<. .i.B ] <.E =.-.p.3.O. .>.B 8 9 x s.m x M M N N ",
"-.[ } / [ %.%.s w.8.$.*.% ! 2.) -.B.-.-.:.X.=...p.[.%.-.9.0.r -.+.n.{ *.7.W 7.] 7.[ :.p.4.=.+.dXf o.",
"} 0.:.-.V.$.f.{ &.b.b.:.& C.J.=.-.%.:.=.$.Q.:...%.K.%.) -.=.MX~ b.q.B.-.9.-.%.{ L.*.-.b.=.) ..kXi.:.",
"} [ 2.-.r.n =.-.9.*.9.$.e C.$.-.4.-.=.=.=.Q.i.=.[ -.%.[ :.} yX9.B.{ 7.-.9.{ ..r.%.%.[ $.$.a Y lX;.p.",
"O.} ( =.R.t.e.:.3.w.:.[ ,XX.8.4.r.$.:.=.e.=.#...$X$.$.=.-.=.rX-.$.| 6.[ -.e.[ [ O.) ) ' ;.3.( uXB d.",
":.-.) -.7 ].j.4.b.0.b.J.C.h.;.z.=XOX#X*X@X-X.X$X$XJ.C.Z.$X7X+X[.8X=XL.Z.e.F.Z.s.`.h.C.h.;.i %.%.:.p.",
"} $.} -.g } 2.{ 9.-.8.5.;.0.[ %.$.0.q.:.-.b.,X1.-.;.F.0.} %.-.$.%.S.q.$.9.B.8.VX0.9.Z.D.=.i.u :.-.4.",
"=.:.$.8.C =.S.B.b.:.9._.( r.[.F.4...0.$.V.:.rX1.=.{ :.-.=.-.F.-.e.Z.7.9.7.{ 8.xX%.%.9.:.e.D.f.-.0.:.",
"=.=.:.r.j 3.e.-.0.0.A.[.e.S.-.B.q.0.b.:.h.b.iX:.R -.J.B.[ ..0.-.%.%.9.-.7.0.-.zX{ 8.%.8.:.;.:._.;.;.",
"$X9X'.NXdX4X$X5XnX6XMXMXN 4XnX4X4XNXBXfXMXmX0X XrX4XD./. X}.h.=XrXOX4XrXyXeX].oXpXuXpXhXMX3XhXtXlXhX",
"-.e.( :.L 4.w.[ =.f.q.B.S.L %.:.q.b...q.0.m b.=.e.*.-.:.;.$.: =.=.Z.E :.=.-.=.CX0.:.&.p.^ =.-.J &.:.",
"[ [ -.:.7 /.D.0.p.C.:.q.:.|.%.%.b.M.p.b.b.Z u.i.:.:.8.p.-.q.g :.q.V.C.w.$.t.$.ZX=.0.;.;.=.=.4.H -.:.",
"-.[ } [ A V.$X'.b.B.:.S.( cX%.] :.M.P.q.V.s.p.p.-.%.$.2.3.{ * =.-.8.^.1.} { %.ZX[ :.r._ / h.4.= B.=.",
"& & % & ; y m u t y e 4 y eX# x r e m g w - p 5 y a 3 u C k yX<X1XpXyX1XT.Q.:XvXkXuXgXP I I J W.!.gX",
"' v ^ t.,X) [ -.q ) } ) +.e.-.[ %.%.-.e.:.q. X-.' ).3.3.&.-.[ -.-.%.$.$.9.$.[ |.) =.( $.:.e.+.k.) 3.",
"} / [ ] > ) =.-.] 4.[ -.[ :.%.a :.%.( $.-.:.2X=.Z.<.{ -.;.[ :.B.9.r.[ | -.} | oX:.[ -.:.e.e.5.e.' 5.",
"[ ) } [ % ..%.[ =.) -.F.;.Z.*.[ %.0.;.) :.b.+X:.=.' ] ;.*.r.D.[.4.r.w.( } [ 8.uX=.$.:.A...F.#.+.5.+.",
"..+.O.( $  .n ..,.B m T.T.D.j.m Z h r r x 6 *Xy 2 5 9 ( p O 5 u 6 6 & >.,.T.>.#X@.2 5 X 3 ` 3 X 8 x ",
") i ..0.O...X.m v B =.~ xX%.4.( :.&.%.s ..+.;.).;.-.' j...- -.) -...{ =.(.8.-.[ { +.#.A.( /. .gX$.;.",
"' r.) %.n b...b.+.=.=.$.BX$.:.3.m.a.p.) [ B.B.B.5.) $.) B.w d :.-.-.8._ -.0...^ { 0.D.s [ 2.) sX=.:.",
":.0.<.S.s :.S.w.4.i B.Q cX;.m.b.iXD.&.e.G.b.(.f.:.:.=.0 M p ( q.[ } w.%.R.' $.Q / [ *.$.[ =.] gX2.2.",
"5.[ s =.) =.=.0 b.;.) $.gX;.X.Q f.A.e.4.:.*.[ [ } n -.D.:.=./ :.-.s.-.-.7.%.T 4.e._.( e.h.e.B.xX} $.",
"=X&X7X@.4X%Xv.p.D J.I.f.z.v.@X%XI.eXeXMXz.: OXV.a  .-X3XL.$X#XOXl.}.&X$X'.-XXX,XuX3X X2X=X-XgXuXcXkX",
") :.%.g a l.p.M.Z.0.:.p -.:.f.;.b.d.=.3.=.>X-.-...f.$.<.=.[ 3 ' 4./ -.) ) =.a zXA.w.-.w.} 2.=.(.+.) ",
") =.) jX .Q.#.*.b...=.=.=.=.0.A.d R &.p.J.XX;.=.-.).:.;.h.-.9.-.s | -.^ ) [ 9 U %.%.O.A...4.[ 0.:.$.",
") } -.xXj.D.+.-.) ..5...;.a c a :.d p.J.m :X4.[ { l.Y ;.t.+.8.}.2.| =.-.[ :.{..XH.=.0.8X5.w.R A.r.:.",
").x.*XD.#XeXgX%XQ.J.l.G j.].rXiXfXaXD.mXaX5XmXMXVXmX&X4XE.5XQ.^.1XQ.%X4X&X9XmXNXZXVXvXbXVXkXBXlXdXhX",
"+.c =.=.R.' =.) ,...:.e.1XR M 0.=.=.:.) $.O.) A.R.x.D.0 .., $.$.-.[ $.:.-.' } ^.%.C.h.i.) $.+.wX:.#.",
"1._ 5._ 1.5.,.) =.=.) $.!.=.3.^ ) $.) } Y ' [ E.{.-.} =.:.; $.} ..1.-.-.}.[ } *.$.:.2.f.) ` ` kX-.=.",
"1.) q / _ ^.-.) -.) 2.b MX=.$.+./ ' 5.4.v =.0 ' '.-.( N 1.w $.=.k.( ..=.3.] ' =.[ ) ) -.} ) +.XX&.:.",
"' c c Z ;Xz 3 k m V u V S m 4 + 5 F 7 > ; g = - % & ; O e z L V z g ; ; 8 O ; 7 + T.dXjXMXfXlXfXuXz.",
"-.=.=.i xX=.=.@.-.4.-.$.n.b.b.:.:.p.b.0.L.1 =.=.:.1.e.:.4.) } w.=.:.-.-.=.=.; ' $.$.=.=.-.h } 2.-.3.",
"} 4.4.s NXD.B.%.:.0.p.$.+XV.V.V.Z.n.m.F.Z.: :.B.:.Z.3.0.b.b.%.:.b.b.$.:.0.-.g :.) b.A.d.F.p.4.4.f.D.",
"4.:.0.( xX5.:.5.5.A.S.D.:.V.=.b.m.J.b.d r.& 4./ 0.0.:.:.:.=.8.0.=.-.=.4.%.%.l =.-.f.:.B.;.f.=.;...f.",
"h 4 7 t oXh g o ; > 6 & . $ % O O w w t h : h 8 # # o @ O 5 r - r b 2 . . & < 2 + 6 ; u B t e m 9 h ",
":.=.s 1 yXv S.E ) %.%.b.5 MX-.9.9.&.u.u.A.j n.4.-.&.4.$.V.1XhX[ :.n %.] | e.; U.-.$.T $.=.=.4X@.) +.",
") _ ) . *X` =.=.$.:.:.B.g vX$.e.b.b.C.0.V.l :.0.$.:.b.] -.4 VX:.9.=.-.w./.8.H ..f.-.3.+.=.( 6X*...;.",
"( } } $ OX1Xj.:.;.A.:.=.j *.-.B.m.a.:.b.G.iXD.-.q.:.B.P.:.G iXk.:.=XQ -.r./.>XN C.3.R n x =.cX:.;.u.",
"i 1.} - @X).Q.).B.b.$.e.* 4.r.=.x.m.Z.B.C.W.j.p.0.r.4._._.G L. .i b @.N b b U s.+.c.) =...#.J X.o.y.",
"X.@.y.k hXx.v.y.&Xa.u.+X+Xh.h.h.J.U.c.-X+XS `.[.h.d.8X-X*.H.Y.+XN.h.J.m.P.G.xXpXeXOX`.x.+.g.x.x.v.W.",
") / } z xX-.^ [ =.=.( $.) ( d $.0.:.-.=.B.% $._ F.[.A.4.=.2.-.-.V.-.:.8.P.:.g A.B.N =.f.3.h.-.=.;.;.",
"4.' =.8 hX$.=.=.} ..$.( ( 9 3.;.:.p.:.=.B.< k.;.Z J.f.2.:.w.0.:.:.:.w.q.V.:.L B.L.s :.;.3.p.3.+.=.B ",
"%.( ) : pX=.) =.#.=.$.k.=.M 4.:.p.f.o.4.C.l $.;.4.g.Z.1.B.*.k.G.0.:.5.0.B.-.z ) Z.=.=.k. .3.3.4.+.<.",
":.:.%.V z.C 1Xz.,Xz.OXI *XG rXqX*X0XoXyXtXuXpXrXz.Q.[.!.#XK %XeX`.@X*X%XQ.y.=XF pXiXlX~.5X~.U L .XW.",
"q ;.=.1.5.] v } ) -.' & ' ..:.R +.4.;.;.S.D.j.j.=.2.4.e.[ ZX:.4.V.8.:.:.0.E Z.$.p._.p.t.%.-.{.h 3.p.",
"} ' ) Y $.) [ [ =.=.) = ^ +.;.K.g.i.&.3.;.3.:.D.) A./.[.a vX:.( =.[ =.:.r.0.).;.E *.F.3.$.=.#X6 +.=.",
"' ) =.1.$.^ $.;.:.=.} g 3.( 3.:.;.&..._.=.B.' D.+.4.-. .A.iXe.4.- e.e.%.f.-.).F.( :.B.) ^ 3.#XB ( #."
};
